<svg xmlns="http://www.w3.org/2000/svg" viewBox="0 0 200 240" role="img" aria-labelledby="logoTitle logoDesc">
  <title id="logoTitle">Pencoedtre High School crest</title>
  <desc id="logoDesc">A gold-edged shield with a green tree above a banner reading Pencoedtre.</desc>
  <defs>
    <linearGradient id="shieldFill" x1="0" y1="0" x2="1" y2="1">
      <stop offset="0" stop-color="#11181f"/>
      <stop offset="1" stop-color="#0a1016"/>
    </linearGradient>
    <linearGradient id="treeFill" x1="0" y1="0" x2="0" y2="1">
      <stop offset="0" stop-color="#63d87c"/>
      <stop offset="1" stop-color="#2b8f4a"/>
    </linearGradient>
    <linearGradient id="bannerFill" x1="0" y1="0" x2="0" y2="1">
      <stop offset="0" stop-color="#f2c54a"/>
      <stop offset="1" stop-color="#dba930"/>
    </linearGradient>
  </defs>
  <g transform="translate(12 12)">
    <path d="M32 12h112c9 0 16 7 16 16v74c0 54-60 94-72 101-12-7-72-47-72-101V28c0-9 7-16 16-16z" fill="url(#shieldFill)" stroke="#f7d874" stroke-width="6" stroke-linejoin="round"/>
    <g transform="translate(52 36)">
      <path d="M48 92c-14-9-26-21-30-39 8 11 14 15 18 16-8-16-10-33-5-52 3 18 12 33 26 42-2-10-2-20 3-32 3 11 6 20 14 29-1-9 1-18 6-28 2 17 0 32-8 45 4 0 10-4 16-11-4 14-14 26-28 35v24h-12z" fill="url(#treeFill)"/>
      <path d="M52 94h-4V68c-12-8-20-17-24-26 5 5 10 8 15 10-6-13-7-27-3-43 1 16 9 31 23 42-2-12-1-23 4-34 3 12 6 22 14 33-1-9 0-18 4-27 1 14 0 26-6 38 5-2 11-6 16-12-5 12-13 22-26 31z" fill="#174d2b" opacity=".6"/>
      <path d="M48 96h8c1 10-3 16-8 16s-9-6-8-16z" fill="#2b8f4a"/>
    </g>
    <g transform="translate(0 150)">
      <path d="M16 22h144l16-22v46l-16-8H16L0 46V24z" fill="url(#bannerFill)" stroke="#1b1b1b" stroke-width="4" stroke-linejoin="round"/>
      <text x="88" y="32" fill="#161616" font-family="'Montserrat','Segoe UI',sans-serif" font-size="26" font-weight="700" text-anchor="middle" letter-spacing="3">PENCOEDTRE</text>
    </g>
  </g>
</svg>
